<svg xmlns="http://www.w3.org/2000/svg" xmlns:xlink="http://www.w3.org/1999/xlink" width="942.577" height="1266.435" viewBox="0 0 942.577 1266.435">
  <defs>
    <clipPath id="clip-path">
      <rect id="Rectangle_19" data-name="Rectangle 19" width="657.232" height="343.636" fill="none"/>
    </clipPath>
    <clipPath id="clip-path-3">
      <rect id="Rectangle_2" data-name="Rectangle 2" width="594.249" height="272.949" transform="translate(32.09 70.687)" fill="none"/>
    </clipPath>
    <clipPath id="clip-path-4">
      <rect id="Rectangle_3" data-name="Rectangle 3" width="615.658" height="313.384" transform="translate(32.09 30.252)" fill="none"/>
    </clipPath>
    <clipPath id="clip-path-5">
      <rect id="Rectangle_4" data-name="Rectangle 4" width="72.906" height="136.64" transform="translate(454.188 111.348)" fill="none"/>
    </clipPath>
    <clipPath id="clip-path-6">
      <rect id="Rectangle_5" data-name="Rectangle 5" width="50.439" height="40.009" transform="translate(479.491 113.028)" fill="none"/>
    </clipPath>
    <clipPath id="clip-path-7">
      <rect id="Rectangle_6" data-name="Rectangle 6" width="55.122" height="31.685" transform="translate(469.092 157.926)" fill="none"/>
    </clipPath>
    <clipPath id="clip-path-8">
      <rect id="Rectangle_7" data-name="Rectangle 7" width="58.859" height="36.138" transform="translate(156.982 121.336)" fill="none"/>
    </clipPath>
    <clipPath id="clip-path-9">
      <rect id="Rectangle_8" data-name="Rectangle 8" width="70.878" height="30.778" transform="translate(134.591 104.289)" fill="none"/>
    </clipPath>
    <clipPath id="clip-path-10">
      <rect id="Rectangle_9" data-name="Rectangle 9" width="20.655" height="20.655" transform="translate(136.625 148.917)" fill="none"/>
    </clipPath>
    <clipPath id="clip-path-11">
      <rect id="Rectangle_10" data-name="Rectangle 10" width="15.411" height="16.328" transform="translate(179.192 168.327)" fill="none"/>
    </clipPath>
    <clipPath id="clip-path-12">
      <rect id="Rectangle_11" data-name="Rectangle 11" width="14.497" height="20.262" transform="translate(117.682 130.082)" fill="none"/>
    </clipPath>
    <clipPath id="clip-path-13">
      <rect id="Rectangle_14" data-name="Rectangle 14" width="28.601" height="7.475" transform="translate(310.186 240.533)" fill="none"/>
    </clipPath>
    <clipPath id="clip-path-14">
      <rect id="Rectangle_15" data-name="Rectangle 15" width="59.175" height="76.634" transform="translate(294.899 244.088)" fill="none"/>
    </clipPath>
    <clipPath id="clip-path-15">
      <rect id="Rectangle_16" data-name="Rectangle 16" width="36.676" height="4.143" transform="translate(306.148 318.802)" fill="none"/>
    </clipPath>
    <clipPath id="clip-path-16">
      <rect id="Rectangle_17" data-name="Rectangle 17" width="657.232" height="227.18" transform="translate(0 2.479)" fill="none"/>
    </clipPath>
  </defs>
  <g id="bg-left-side-login" transform="translate(86.961 129.418)">
    <g id="Splashes" transform="translate(-12 -8.982)" opacity="0.37">
      <ellipse id="Ellipse_1" data-name="Ellipse 1" cx="164.5" cy="96" rx="164.5" ry="96" transform="translate(10.19 247.047) rotate(-105)" fill="#2154bd"/>
      <ellipse id="Ellipse_2" data-name="Ellipse 2" cx="17" cy="20" rx="17" ry="20" transform="translate(289 44)" fill="#2154bd"/>
      <circle id="Ellipse_3" data-name="Ellipse 3" cx="25.5" cy="25.5" r="25.5" transform="translate(399 153)" fill="#2154bd"/>
      <ellipse id="Ellipse_4" data-name="Ellipse 4" cx="68" cy="63.5" rx="68" ry="63.5" transform="translate(-33 1019)" fill="#2154bd"/>
      <circle id="Ellipse_5" data-name="Ellipse 5" cx="33" cy="33" r="33" transform="translate(765 869)" fill="#2154bd"/>
      <circle id="Ellipse_6" data-name="Ellipse 6" cx="28" cy="28" r="28" transform="translate(73 742)" fill="#2154bd"/>
      <circle id="Ellipse_7" data-name="Ellipse 7" cx="26" cy="26" r="26" transform="translate(129 561)" fill="#2154bd"/>
      <ellipse id="Ellipse_8" data-name="Ellipse 8" cx="39.5" cy="47" rx="39.5" ry="47" transform="translate(473 948)" fill="#2154bd"/>
      <circle id="Ellipse_9" data-name="Ellipse 9" cx="30.5" cy="30.5" r="30.5" transform="translate(704 561)" fill="#2154bd"/>
    </g>
    <g id="Group_48" data-name="Group 48" transform="translate(198.384 306.982)">
      <g id="Group_47" data-name="Group 47" clip-path="url(#clip-path)">
        <g id="Group_46" data-name="Group 46">
          <g id="Group_45" data-name="Group 45" clip-path="url(#clip-path)">
            <g id="Group_5" data-name="Group 5" opacity="0.05" style="mix-blend-mode: multiply;isolation: isolate">
              <g id="Group_4" data-name="Group 4">
                <g id="Group_3" data-name="Group 3" clip-path="url(#clip-path-3)">
                  <path id="Path_3" data-name="Path 3" d="M36.026,325.936c-5.512-42.464-6.283-86.154,4.565-127.577s34.214-80.6,69.624-104.673S193.723,62.661,232.23,81.391c17.17,8.351,31.695,21.142,46.675,32.982,34.476,27.248,76.616,53.445,121.475,55.465a370.3,370.3,0,0,0,57.775-1.919c19.008-2.127,37.964-5.734,57.084-5.206,36.686,1.013,74.595,15.737,91.179,50.353,19.278,40.239,24.956,86.963,15.313,130.57" fill="#68b0ff"/>
                </g>
              </g>
            </g>
            <g id="Group_8" data-name="Group 8" opacity="0.11" style="mix-blend-mode: multiply;isolation: isolate">
              <g id="Group_7" data-name="Group 7">
                <g id="Group_6" data-name="Group 6" clip-path="url(#clip-path-4)">
                  <path id="Path_4" data-name="Path 4" d="M643.67,323.314c5.71-48.755,6.51-98.916-4.729-146.476S603.494,84.3,566.808,56.659,480.291,21.038,440.4,42.542c-17.788,9.589-32.837,24.275-48.356,37.868-35.718,31.285-79.377,61.362-125.852,63.682a346.34,346.34,0,0,1-59.857-2.2c-19.693-2.441-39.331-6.582-59.14-5.976-38.008,1.162-77.283,18.067-94.464,57.811A256.474,256.474,0,0,0,36.863,343.636" fill="#68b0ff"/>
                </g>
              </g>
            </g>
            <path id="Path_5" data-name="Path 5" d="M351.01,50.431a8.186,8.186,0,1,0-8.186,8.185,8.186,8.186,0,0,0,8.186-8.185" fill="#b948a5"/>
            <path id="Path_6" data-name="Path 6" d="M342.824,100.862c-10.043,0-17.91-22.152-17.91-50.431S332.781,0,342.824,0s17.91,22.152,17.91,50.431-7.867,50.431-17.91,50.431m0-99.462c-8.949,0-16.51,22.453-16.51,49.031s7.561,49.03,16.51,49.03,16.51-22.453,16.51-49.03S351.773,1.4,342.824,1.4" fill="#536bbe"/>
            <path id="Path_7" data-name="Path 7" d="M313.565,88.352a8.7,8.7,0,0,1-6.4-2.261c-7.1-7.1,3-28.328,23-48.325C345.267,22.66,362.113,12.51,372.082,12.51a8.693,8.693,0,0,1,6.4,2.261c3.478,3.478,2.924,10.476-1.559,19.705-4.377,9.009-11.99,19.173-21.436,28.619C340.382,78.2,323.534,88.352,313.565,88.352M372.082,13.91c-9.621,0-26.071,9.985-40.933,24.847-18.793,18.793-29.324,40.016-23,46.343a7.366,7.366,0,0,0,5.412,1.852c9.622,0,26.072-9.985,40.933-24.847,9.339-9.339,16.856-19.368,21.166-28.24,4.142-8.526,4.809-15.125,1.829-18.1a7.365,7.365,0,0,0-5.411-1.851" fill="#536bbe"/>
            <path id="Path_8" data-name="Path 8" d="M342.824,68.341c-28.278,0-50.431-7.867-50.431-17.91s22.153-17.91,50.431-17.91,50.432,7.867,50.432,17.91-22.153,17.91-50.432,17.91m0-34.42c-26.577,0-49.03,7.561-49.03,16.51s22.453,16.51,49.03,16.51,49.031-7.561,49.031-16.51-22.453-16.51-49.031-16.51" fill="#536bbe"/>
            <path id="Path_9" data-name="Path 9" d="M372.083,88.352c-9.969,0-26.817-10.15-41.923-25.257-20-20-30.1-41.223-23-48.324a8.694,8.694,0,0,1,6.4-2.261c9.968,0,26.815,10.15,41.923,25.256,20,20,30.1,41.223,22.995,48.325a8.7,8.7,0,0,1-6.4,2.261M313.566,13.91a7.366,7.366,0,0,0-5.412,1.851c-6.328,6.328,4.2,27.551,23,46.344,14.861,14.862,31.311,24.847,40.933,24.847a7.363,7.363,0,0,0,5.411-1.852c6.328-6.327-4.2-27.55-22.995-46.343C339.637,23.9,323.187,13.91,313.566,13.91" fill="#536bbe"/>
            <path id="Path_10" data-name="Path 10" d="M307.9,39.6a3.726,3.726,0,1,0-3.726,3.726A3.726,3.726,0,0,0,307.9,39.6" fill="#afd9f2"/>
            <path id="Path_11" data-name="Path 11" d="M381.811,29.5a3.726,3.726,0,1,0-3.726,3.726,3.726,3.726,0,0,0,3.726-3.726" fill="#afd9f2"/>
            <path id="Path_12" data-name="Path 12" d="M381.811,70.415a3.726,3.726,0,1,0-3.726,3.726,3.726,3.726,0,0,0,3.726-3.726" fill="#afd9f2"/>
            <path id="Path_13" data-name="Path 13" d="M330.974,74.152a3.726,3.726,0,1,0-3.726,3.726,3.726,3.726,0,0,0,3.726-3.726" fill="#afd9f2"/>
            <path id="Path_14" data-name="Path 14" d="M22.355,76.9l34.958-10.6a.834.834,0,0,0-.484-1.6l-34.958,10.6a.834.834,0,0,0,.484,1.6" fill="#afd9f2"/>
            <path id="Path_15" data-name="Path 15" d="M24.532,84.085l34.958-10.6a.834.834,0,0,0-.484-1.6l-34.958,10.6a.834.834,0,0,0,.484,1.6" fill="#afd9f2"/>
            <path id="Path_16" data-name="Path 16" d="M32.813,89.415l22.75-6.9a.835.835,0,0,0-.485-1.6l-22.75,6.9a.834.834,0,0,0,.485,1.6" fill="#afd9f2"/>
            <path id="Path_17" data-name="Path 17" d="M36.962,102.806l23.353-7.08a.834.834,0,0,0-.484-1.6l-23.353,7.08a.834.834,0,0,0,.484,1.6" fill="#afd9f2"/>
            <path id="Path_18" data-name="Path 18" d="M34.634,111.146,67.439,101.2a.834.834,0,0,0-.484-1.6L34.15,109.55a.834.834,0,0,0,.484,1.6" fill="#afd9f2"/>
            <path id="Path_19" data-name="Path 19" d="M33.417,119.149l38.365-11.632a.834.834,0,0,0-.483-1.6L32.933,117.553a.834.834,0,0,0,.484,1.6" fill="#afd9f2"/>
            <path id="Path_20" data-name="Path 20" d="M36.649,125.8l36.7-11.126a.834.834,0,0,0-.483-1.6l-36.7,11.126a.834.834,0,0,0,.484,1.6" fill="#afd9f2"/>
            <path id="Path_21" data-name="Path 21" d="M41.549,131.952,73.8,122.174a.834.834,0,0,0-.484-1.6l-32.249,9.777a.834.834,0,0,0,.484,1.6" fill="#afd9f2"/>
            <path id="Path_22" data-name="Path 22" d="M49.785,137.089l21.685-6.575a.834.834,0,0,0-.484-1.6L49.3,135.493a.834.834,0,0,0,.484,1.6" fill="#afd9f2"/>
            <path id="Path_23" data-name="Path 23" d="M50.268,152.005,76.3,144.113a.834.834,0,0,0-.484-1.6l-26.031,7.892a.834.834,0,0,0,.484,1.6" fill="#afd9f2"/>
            <path id="Path_24" data-name="Path 24" d="M47.9,160.151l32.123-9.739a.834.834,0,0,0-.484-1.6l-32.123,9.739a.834.834,0,0,0,.484,1.6" fill="#afd9f2"/>
            <path id="Path_25" data-name="Path 25" d="M47.193,167.793l38.769-11.755a.834.834,0,0,0-.483-1.6L46.709,166.2a.834.834,0,0,0,.484,1.6" fill="#afd9f2"/>
            <path id="Path_26" data-name="Path 26" d="M17.249,73C20.978,83.82,29.912,91.018,40.833,93.816c6.343,1.625,12.614,2.079,18.352,5.528a23.434,23.434,0,0,1,10.161,13.5C73.12,125.8,60.328,136.6,53.008,145.416c-7.1,8.556-13.271,21.057-5.978,31.417,1.947,2.766,6.42-.028,4.457-2.815-8.4-11.937,5.493-25.117,12.755-33.521,7.19-8.322,12.835-17.877,10.148-29.178-2.418-10.17-11.535-17.433-21.164-20.256-6.484-1.9-13.065-2.165-19.128-5.442A25.59,25.59,0,0,1,22.293,71.475c-1.1-3.205-6.153-1.688-5.044,1.529" fill="#b948a5"/>
            <path id="Path_27" data-name="Path 27" d="M54.553,61.694a26.21,26.21,0,0,1-1.419,17.179c-2.647,6.206-7.949,10.46-12.479,15.233a30.386,30.386,0,0,0-7.634,28.6c2.916,11.126,13.584,16.277,23.7,19.319,10.888,3.276,30.875,5.976,30.5,21.161-.084,3.408,5.187,3.248,5.27-.133.3-12.214-10.858-18.959-21.073-22.386-11.37-3.813-27.205-4.78-32.633-17.4-2.248-5.224-1.783-11.084-.059-16.365,2.067-6.33,7.323-10.72,11.837-15.3C58.8,83.248,62.612,71.647,59.6,60.165c-.864-3.291-5.9-1.75-5.044,1.529" fill="#2f3281"/>
            <path id="Path_28" data-name="Path 28" d="M589.224,257.209c8.706-4.866,17.995-10.714,21.068-20.2,2.532-7.826.057-16.135-2.263-23.679-1.9-6.165-8.164-10.757-13.528-14.081-3.764-2.333-7.834-4.272-11.058-7.308-5.245-4.942-4.833-11.2-2.452-17.354,2.4-6.207-.293-12.716-4.058-17.891-3.8-5.228-9.489-8.111-15.218-10.841a25.646,25.646,0,0,1-6.56-3.892c-4.832-4.452-5.069-11.818-6.837-18.146-3.982-14.248-19.284-29.023-34.628-21.9a6.507,6.507,0,0,1-2.2.758,6.749,6.749,0,0,1-2.556-.55c-4.237-1.4-8.819-1.2-13.267-.865-7.072.531-14.185,1.387-20.888,3.7-16.954,5.838-34.135,28.014-18.909,44.627,1.716,1.873,3.909,3.839,3.742,6.375a6.914,6.914,0,0,1-1.194,3.079c-3.384,5.518-8.519,9.74-12.326,14.976s-6.2,12.407-3.189,18.14c1.914,3.649,5.636,5.993,8.019,9.356,2.686,3.793,3.482,8.67,3.121,13.305-.626,8.07-2.731,16.124-4.246,24.068,5.8,2.162,12.21,1.553,18.4,1.507,9.338-.07,18.638,1.209,27.974,1.416s18.95-.734,27.287-4.94c5.36-2.7,10.391-7.347,10.93-13.325" fill="#b948a5"/>
            <g id="Group_11" data-name="Group 11" opacity="0.41" style="mix-blend-mode: multiply;isolation: isolate">
              <g id="Group_10" data-name="Group 10">
                <g id="Group_9" data-name="Group 9" clip-path="url(#clip-path-5)">
                  <path id="Path_29" data-name="Path 29" d="M491.732,111.348a75.615,75.615,0,0,0-21.448,5.414c-4.158,1.731-8.391,4.05-10.574,7.99-3.092,5.58-1.159,12.527,1.214,18.449s5.184,12.26,3.612,18.444c-1.638,6.448-7.675,10.987-9.671,17.333a15.1,15.1,0,0,0,.636,10.628c2.381,5.273,7.53,8.672,11.185,13.157a30.813,30.813,0,0,1,6.5,20.683,41.37,41.37,0,0,1-7.066,20.726,73.075,73.075,0,0,0,41.9,1.41,19.1,19.1,0,0,0,6.713-2.876,17.951,17.951,0,0,0,3.873-4.35,48.84,48.84,0,0,0-2.049-57.827" fill="#b948a5"/>
                </g>
              </g>
            </g>
            <path id="Path_30" data-name="Path 30" d="M489.852,215.852h91.666c-4.157-4.384-7.955-7.192-11.093-7.781a126.546,126.546,0,0,0-27.727-1.619l-17.789-30.811-14.559,14.05,4.665,22.437s-14.323-2.653-25.163,3.724" fill="#ea8193"/>
            <path id="Path_31" data-name="Path 31" d="M464.839,157.543a7.61,7.61,0,0,0-7.655,2.381,11.266,11.266,0,0,0-2.6,7.844,14.97,14.97,0,0,0,3.633,9.317c4.733,5.446,12.114,7.153,18.427,3.224" fill="#ed7c8e"/>
            <path id="Path_32" data-name="Path 32" d="M470.608,175.325a6.872,6.872,0,0,0-.714-2.472,19.346,19.346,0,0,0-3.118-5.4,11.061,11.061,0,0,0-5.2-3.515,4.14,4.14,0,0,0-2.594-.172c-.007.142.977.186,2.4.751a12.36,12.36,0,0,1,4.734,3.5,26.228,26.228,0,0,1,3.218,5.093,8.648,8.648,0,0,0,1.273,2.219" fill="#b75063"/>
            <path id="Path_33" data-name="Path 33" d="M469.742,176.253a13.49,13.49,0,0,1-1.928-.145,4.318,4.318,0,0,1-1.754-.937,4.755,4.755,0,0,1-1.3-2.041,7.388,7.388,0,0,1,.109-4.52c.365-1.155.711-1.852.6-1.918-.091-.057-.63.53-1.17,1.7a6.932,6.932,0,0,0-.358,5.013,5.119,5.119,0,0,0,1.611,2.376,4.419,4.419,0,0,0,2.154.928c1.363.164,2.1-.382,2.042-.457" fill="#b75063"/>
            <path id="Path_34" data-name="Path 34" d="M624.175,289.1c-13.962-33.916-40.091-78.473-53.75-81.03A126.131,126.131,0,0,0,543.68,206.4a22.234,22.234,0,0,1-13.632,7.991,29.9,29.9,0,0,1-16.82-2.512c-5.533-.632-22.574-1.451-30.78,10.922-9.876,14.892-31.991,83.181-44.28,99.949l38.424,3.846s13.3-18.117,16.126-32.1c0,0,.56,22.508-1.139,32.1s103.56,0,103.56,0,43-3.579,29.036-37.495" fill="#fff7ff"/>
            <path id="Path_35" data-name="Path 35" d="M553.21,206.346c-4.431-.128-7.919-.019-9.53.055a22.239,22.239,0,0,1-13.633,7.991,29.891,29.891,0,0,1-16.82-2.513,48.616,48.616,0,0,0-10.125-.071,45.679,45.679,0,0,0,21.131,26.847s21.309-11.631,28.977-32.309" fill="#8fc5de"/>
            <path id="Path_36" data-name="Path 36" d="M533.686,296.2c0,2.309-.813,4.181-1.816,4.181s-1.817-1.872-1.817-4.181.814-4.181,1.817-4.181,1.816,1.872,1.816,4.181" fill="#8fc5de"/>
            <path id="Path_37" data-name="Path 37" d="M522.725,302.665c-5.019,1.555-10.419.235-15.535-.961s-10.651-2.231-15.488-.178c-.764.325-1.609,1.226-1.045,1.834a1.4,1.4,0,0,0,1.187.248c4.572-.456,9.573-.854,13.384,1.713q-5.149.523-10.25,1.43a35.522,35.522,0,0,0-9.174,2.615,14.382,14.382,0,0,0-6.881,6.387c2.746.41,5.182-1.586,7.507-3.1a25.737,25.737,0,0,1,15.311-4.112,76.276,76.276,0,0,0-11,4.738,21.56,21.56,0,0,0-6.118,4.329,8.833,8.833,0,0,0-2.485,6.864c5.827-5.413,12.322-11.126,20.258-11.651a26.776,26.776,0,0,0-14.122,12.812c2.26-2.312,4.844-4.775,8.073-4.927,3.479-.164,6.415,2.4,9.658,3.671a21,21,0,0,0,8.642,1.094c6.239-.285,12.625-1.96,17.4-5.982a11.734,11.734,0,0,0,3.919-5.48" fill="#fa8f9c"/>
            <path id="Path_38" data-name="Path 38" d="M524.875,238.982c-.013,0-.026,0-.039-.007a3.47,3.47,0,0,1-.732-.315,88.862,88.862,0,0,1,.524,10.947c-.042,4.782-.468,10.468-1.09,16.79-.6,6.322-1.351,13.3-1.428,20.7-.071,7.429.954,14.394,1.277,20.692a109.278,109.278,0,0,1-.48,16.756c-.471,4.768-1.022,8.618-1.363,11.285a20.2,20.2,0,0,0-.385,4.172,18.931,18.931,0,0,0,1.05-4.059c.546-2.638,1.284-6.47,1.916-11.259a99.011,99.011,0,0,0,.856-16.971c-.243-6.407-1.212-13.337-1.139-20.606s.767-14.231,1.286-20.574a162.809,162.809,0,0,0,.725-16.938,69.826,69.826,0,0,0-.978-10.618" fill="#d8c3e4"/>
            <path id="Path_39" data-name="Path 39" d="M629.718,299.969c-.848-6.3-3.411-11.849-5.757-17.674-1.909-4.737-2.9-8.984-5.534-13.535-6.581-11.349-11.7-23.032-19.347-33.98-5.984-8.569-14.442-23.294-26.158-24.619-13.471-1.523-14.547,18.255-13.9,27.2a75.1,75.1,0,0,0,8.047,27.784c1.81,3.664,2.985,7.338,5.094,10.833,2.263,3.748,3.576,9.35,3.776,13.7a3.9,3.9,0,0,1-.708,2.891,4.068,4.068,0,0,1-2.013.977c-8.066,2.139-16.482,2.5-24.82,2.855l-30.558,1.291a108.951,108.951,0,0,0-.19,25.8c3.4.664,6.815,1.257,10.115,2.2,2.943.844,5.494,2.515,8.388,3.46,8.942,2.921,20.338,2.615,29.638,2.219,14.909-.636,29.927-2.108,44.2-6.682,5.918-1.9,10.283-2.383,14.515-7.466a22.424,22.424,0,0,0,5.21-17.256" fill="#fff7ff"/>
            <path id="Path_40" data-name="Path 40" d="M503.371,322.13H415.906v-5.647a3.6,3.6,0,0,1,3.6-3.6h80.269a3.6,3.6,0,0,1,3.6,3.6Z" fill="#2c1e66"/>
            <path id="Path_41" data-name="Path 41" d="M455.991,162.257l15.395-1.761c.886-.1.9-1.5,0-1.4l-15.395,1.761c-.886.1-.9,1.5,0,1.4" fill="#fff7ff"/>
            <path id="Path_42" data-name="Path 42" d="M500.4,194.555a35.05,35.05,0,0,0,20.591-6.423c6.657-4.834,9.581-11.436,12.861-18.682a5.41,5.41,0,0,0,4.317.628c10.257-1.982,17.485-14.066,9.621-22.988-3.65-4.141-11.017-4.872-14.58-.656a47.389,47.389,0,0,0-6.736-21.292c-9.1-14.791-27.352-19.5-43.153-12.927-9.926,4.128-17.936,13.265-19.473,23.9a50.845,50.845,0,0,0,.169,12.416c.9,8.854,2.192,17.783,5.591,26.007,5.26,12.729,17.174,20.007,30.792,20.013" fill="#fa8f9c"/>
            <g id="Group_14" data-name="Group 14" opacity="0.13" style="mix-blend-mode: multiply;isolation: isolate">
              <g id="Group_13" data-name="Group 13">
                <g id="Group_12" data-name="Group 12" clip-path="url(#clip-path-6)">
                  <path id="Path_43" data-name="Path 43" d="M479.778,113.028a12.216,12.216,0,0,0,7.719,13.914c3.414,1.146,7.431.776,10.29,2.966,2.569,1.969,3.4,5.39,4.579,8.4a24.063,24.063,0,0,0,10.418,12.425,17.5,17.5,0,0,0,15.9.717,2.587,2.587,0,0,0,.935-.669c.847-1.087-.2-2.593-1.148-3.592a47.647,47.647,0,0,1-9.191-13.927c-1.294-3-2.286-6.156-3.946-8.975s-4.144-5.348-7.314-6.153" fill="#b948a5"/>
                </g>
              </g>
            </g>
            <path id="Path_44" data-name="Path 44" d="M559.494,27.477l15.533,34.691L620.66,79.312l11.415,47.1" fill="none" stroke="#0068ba" stroke-miterlimit="10" stroke-width="2.843"/>
            <line id="Line_1" data-name="Line 1" x1="15.531" y2="36.537" transform="translate(559.496 62.168)" fill="none" stroke="#0068ba" stroke-miterlimit="10" stroke-width="2.843"/>
            <path id="Path_45" data-name="Path 45" d="M568.979,73.332a12.7,12.7,0,1,0-5.117-17.212,12.7,12.7,0,0,0,5.117,17.212" fill="#afd9f2"/>
            <path id="Path_46" data-name="Path 46" d="M616.4,87.182a8.95,8.95,0,1,0-3.607-12.133A8.951,8.951,0,0,0,616.4,87.182" fill="#536bbe"/>
            <path id="Path_47" data-name="Path 47" d="M555.231,35.347a8.95,8.95,0,1,0-3.608-12.133,8.951,8.951,0,0,0,3.608,12.133" fill="#536bbe"/>
            <path id="Path_48" data-name="Path 48" d="M555.232,106.575a8.95,8.95,0,1,0-3.607-12.133,8.95,8.95,0,0,0,3.607,12.133" fill="#b948a5"/>
            <path id="Path_49" data-name="Path 49" d="M627.811,134.282a8.95,8.95,0,1,0-3.607-12.133,8.95,8.95,0,0,0,3.607,12.133" fill="#afd9f2"/>
            <path id="Path_50" data-name="Path 50" d="M479.19,160.3c.364,2.277-.167,4.256-1.187,4.419s-2.143-1.55-2.508-3.828.168-4.255,1.188-4.419,2.142,1.551,2.507,3.828" fill="#b75063"/>
            <path id="Path_51" data-name="Path 51" d="M502.755,155.593c.365,2.277-.167,4.256-1.187,4.419s-2.143-1.55-2.507-3.828.167-4.255,1.187-4.419,2.142,1.551,2.507,3.828" fill="#b75063"/>
            <path id="Path_52" data-name="Path 52" d="M477.215,143.55c.669,1.365-.672,3.393-2.994,4.53s-4.746.953-5.414-.412.672-3.393,2.993-4.53,4.746-.953,5.415.412" fill="#b948a5"/>
            <path id="Path_53" data-name="Path 53" d="M503.8,140.778c-.424,1.46-2.78,2.058-5.263,1.337s-4.152-2.489-3.728-3.948,2.78-2.058,5.263-1.337,4.152,2.488,3.728,3.948" fill="#b948a5"/>
            <path id="Path_54" data-name="Path 54" d="M491.9,167.658c-.053-.042-.348.314-.909.887a4.382,4.382,0,0,1-1.128.849,2.079,2.079,0,0,1-1.687.1,1.279,1.279,0,0,1-.775-1.59,24.9,24.9,0,0,0,.152-9.1,46.351,46.351,0,0,0-3.365-10.985,23.262,23.262,0,0,0-2.1-4.258,28.779,28.779,0,0,0,1.529,4.485,57.377,57.377,0,0,1,3.078,10.889,28.64,28.64,0,0,1,.308,6.174c-.054.963-.189,1.814-.317,2.708a2.33,2.33,0,0,0,.22,1.416,1.893,1.893,0,0,0,1.061.836,2.556,2.556,0,0,0,2.125-.248,4.222,4.222,0,0,0,1.149-1.05c.5-.668.7-1.079.657-1.111" fill="#b75063"/>
            <path id="Path_55" data-name="Path 55" d="M495.619,168.52c-.135,0-.174.658-.542,1.593a5.613,5.613,0,0,1-6.1,3.644c-1-.119-1.6-.4-1.66-.278-.057.084.457.579,1.542.879a5.518,5.518,0,0,0,6.8-4.064c.25-1.1.058-1.785-.043-1.774" fill="#b75063"/>
            <path id="Path_56" data-name="Path 56" d="M537.888,167.747c.021-.065-.3-.185-.778-.54a4.723,4.723,0,0,1-1.484-1.946,8.6,8.6,0,0,1-.519-3.651,17.84,17.84,0,0,1,.749-4.552,18.948,18.948,0,0,1,4.1-7.285c1.444-1.623,2.586-2.39,2.5-2.514a8.019,8.019,0,0,0-2.939,2.089,17.213,17.213,0,0,0-4.492,7.461,16.842,16.842,0,0,0-.718,4.789,8.542,8.542,0,0,0,.763,3.921,4.481,4.481,0,0,0,1.859,1.973c.58.3.947.3.958.255" fill="#b75063"/>
            <path id="Path_57" data-name="Path 57" d="M538.636,164.114c.053.082.773-.257,1.484-1.283a6.223,6.223,0,0,0,.913-4.657,6.911,6.911,0,0,0-2.515-4.014c-.974-.749-1.72-.939-1.761-.845-.063.118.56.5,1.354,1.3a7.567,7.567,0,0,1,2.073,3.728,6.54,6.54,0,0,1-.591,4.173c-.505,1-1.047,1.491-.957,1.6" fill="#b75063"/>
            <g id="Group_17" data-name="Group 17" opacity="0.14" style="mix-blend-mode: multiply;isolation: isolate">
              <g id="Group_16" data-name="Group 16">
                <g id="Group_15" data-name="Group 15" clip-path="url(#clip-path-7)">
                  <path id="Path_58" data-name="Path 58" d="M524.214,168.52a10.594,10.594,0,1,1-10.594-10.594,10.594,10.594,0,0,1,10.594,10.594" fill="#b948a5"/>
                  <path id="Path_59" data-name="Path 59" d="M485.757,181.856a10.586,10.586,0,0,0-16.665-8.675c.173.454.33.912.515,1.361a31.657,31.657,0,0,0,12.757,15.069,10.553,10.553,0,0,0,3.393-7.755" fill="#b948a5"/>
                </g>
              </g>
            </g>
            <path id="Path_60" data-name="Path 60" d="M510.353,108.48a56.392,56.392,0,0,0-15.112-.915c-1.961.107-14.917,1.911-15.188,3.458-.69,3.946,3.653,7.408,6.734,8.972a68.388,68.388,0,0,0,11.035,4.441c2.062.628,4.388,1.343,5.36,3.266a9.779,9.779,0,0,1,.612,3.884c.37,6.267,3.714,8.919,7.807,12.864,4.2,4.045,9.681,7.1,15.708,5.678a7.876,7.876,0,0,0,5.153-3.408c2.451-4.263.881-11.761-1.543-15.733-3.01-4.93-5.321-10.257-8.787-14.92-3.323-4.471-6.109-6.338-11.779-7.587" fill="#b948a5"/>
            <path id="Path_61" data-name="Path 61" d="M492.783,292.923c.043-.069-.834-.63-2.309-1.774a31.159,31.159,0,0,1-5.565-5.557,28.88,28.88,0,0,1-2.882-4.586,25.379,25.379,0,0,1-2.144-5.812,25.909,25.909,0,0,1,.559-14.022,103.538,103.538,0,0,1,5.577-13.234,67.58,67.58,0,0,0,4.306-11.021A28.628,28.628,0,0,0,491.393,229a20.837,20.837,0,0,0-.168-2.166,2.519,2.519,0,0,0-.131-.746,27.515,27.515,0,0,0-.038,2.909,31.522,31.522,0,0,1-1.32,7.752A72.4,72.4,0,0,1,485.3,247.6a97.414,97.414,0,0,0-5.685,13.325,26.315,26.315,0,0,0-.5,14.463,25.52,25.52,0,0,0,2.28,5.95,28.272,28.272,0,0,0,8.885,10.085,18.3,18.3,0,0,0,1.833,1.163,2.487,2.487,0,0,0,.677.34" fill="#d8c3e4"/>
            <path id="Path_62" data-name="Path 62" d="M486.187,246.355c.209.057,1.069-3.492.532-7.9-.506-4.416-2.17-7.667-2.359-7.563-.246.1,1.013,3.394,1.5,7.664.522,4.267.068,7.767.328,7.8" fill="#d8c3e4"/>
            <path id="Path_63" data-name="Path 63" d="M555.414,221.162a3.953,3.953,0,0,0-.131,1.339c-.01.521-.02,1.061-.031,1.627,0,.644.067,1.384.111,2.22a55.148,55.148,0,0,0,2.9,13.853c1.886,5.7,4.991,12.124,8.434,19.172q1.284,2.648,2.579,5.437c.846,1.871,1.719,3.754,2.428,5.73a34.062,34.062,0,0,1,2.341,12.6,14,14,0,0,1-1.528,6.079,10.473,10.473,0,0,1-1.813,2.409,11.211,11.211,0,0,1-2.418,1.75,16.693,16.693,0,0,1-5.709,1.694q-3.034.371-5.958.584c-7.792.539-14.873.406-20.822.527-5.952.079-10.778.382-14.09.777-1.657.193-2.937.386-3.8.561a3.96,3.96,0,0,0-1.3.336,4.04,4.04,0,0,0,1.347.011c.872-.063,2.157-.148,3.813-.236,3.31-.186,8.1-.3,14.037-.224,5.933.035,13.022.3,20.923-.159q2.961-.18,6.057-.534a18.216,18.216,0,0,0,6.3-1.839,12.825,12.825,0,0,0,2.813-2.018,12.145,12.145,0,0,0,2.135-2.815,15.627,15.627,0,0,0,1.745-6.827,35.2,35.2,0,0,0-2.479-13.262c-.748-2.048-1.656-3.974-2.521-5.842q-1.323-2.8-2.646-5.444c-3.532-7.028-6.71-13.321-8.711-18.874a62.268,62.268,0,0,1-3.387-13.515c-.095-.82-.217-1.547-.267-2.181-.047-.559-.092-1.093-.135-1.608a4.039,4.039,0,0,0-.218-1.329" fill="#d8c3e4"/>
            <path id="Path_64" data-name="Path 64" d="M524.234,238.655,542.7,253.139s16.612-16.209,10.93-46.781q-1.3-.041-2.495-.057Z" fill="#f7edff"/>
            <path id="Path_65" data-name="Path 65" d="M504.917,211.664c-.658.04-1.332.094-2.021.167-1.2,6.428-3.9,24.8,1.729,37.527l19.609-10.7Z" fill="#f7edff"/>
            <path id="Path_66" data-name="Path 66" d="M539.969,217.495a30.078,30.078,0,0,0,11.6-11.188c-3.64-.062-6.479.029-7.885.093a22.235,22.235,0,0,1-13.632,7.992,29.9,29.9,0,0,1-16.82-2.513,49.024,49.024,0,0,0-7.785-.245,21.6,21.6,0,0,0,10.593,7.668,30.139,30.139,0,0,0,23.933-1.807" fill="#9cddf3"/>
            <path id="Path_67" data-name="Path 67" d="M533.3,257.226c0,2.309-.813,4.18-1.816,4.18s-1.817-1.871-1.817-4.18.814-4.181,1.817-4.181,1.816,1.872,1.816,4.181" fill="#8fc5de"/>
            <path id="Path_68" data-name="Path 68" d="M533.3,277.71c0,2.309-.813,4.181-1.816,4.181s-1.817-1.872-1.817-4.181.814-4.181,1.817-4.181,1.816,1.872,1.816,4.181" fill="#8fc5de"/>
            <path id="Path_69" data-name="Path 69" d="M605.786,281.931a39.718,39.718,0,0,0-4.158-10.162c-3.566-6.264-8.072-11.529-12.089-16.664-8.094-10.24-14.506-20.157-18.714-29.079-2.131-4.443-3.668-8.642-5.183-12.279q-.278-.676-.556-1.325c-.168.146-.328.3-.487.46.148.364.3.731.445,1.108,1.45,3.641,2.94,7.878,5.042,12.384,4.145,9.034,10.535,19.071,18.614,29.388,4.011,5.169,8.465,10.42,11.942,16.563a38.758,38.758,0,0,1,4.027,9.874,29.526,29.526,0,0,1,.788,5.384,25.269,25.269,0,0,1-.246,5.491,22.882,22.882,0,0,1-1.454,5.27,18.94,18.94,0,0,1-2.8,4.573,21.191,21.191,0,0,1-8.615,5.941,45.777,45.777,0,0,1-10.009,2.578c-.839.132-1.666.316-2.5.4l-2.495.274c-1.651.218-3.3.3-4.921.384a163.856,163.856,0,0,1-18.5-.276L537.772,311.1c-4.182-.294-8.033-.43-11.507-.446.1-5.159.462-9.771.858-13.358l-.836.035a110.289,110.289,0,0,0-1.154,13.323c-3.044.01-5.772.115-8.153.29,0,.17,0,.341,0,.511,2.378-.124,5.1-.181,8.14-.144-.033,1.472-.044,2.976-.017,4.521.064,3.292.275,6.422.566,9.317.372.09.74.19,1.109.288-.259-2.979-.454-6.219-.52-9.626-.027-1.532-.022-3.023,0-4.483,3.457.066,7.29.25,11.459.587,4.929.348,10.322.864,16.135,1.263a161.064,161.064,0,0,0,18.616.383c1.642-.082,3.3-.154,4.979-.368l2.528-.268c.848-.087,1.688-.27,2.54-.4a46.567,46.567,0,0,0,10.248-2.615,22.284,22.284,0,0,0,9.075-6.253,20.015,20.015,0,0,0,2.98-4.861,23.97,23.97,0,0,0,1.535-5.548,26.29,26.29,0,0,0,.255-5.728,30.546,30.546,0,0,0-.822-5.588" fill="#d8c3e4"/>
            <path id="Path_70" data-name="Path 70" d="M518.8,259.019c0-.319-1.847-.578-4.125-.578s-4.125.259-4.125.578,1.847.577,4.125.577,4.125-.258,4.125-.577" fill="#d8c3e4"/>
            <path id="Path_71" data-name="Path 71" d="M516.716,279.033c-.065-.318-1.513-.282-3.263-.217s-3.2.152-3.236.474,1.425.756,3.281.68,3.284-.631,3.218-.937" fill="#d8c3e4"/>
            <path id="Path_72" data-name="Path 72" d="M624.509,317.225a22.418,22.418,0,0,0,5.209-17.256,42.3,42.3,0,0,0-2.012-8.117,32.89,32.89,0,0,0-9.973,7.664,34.584,34.584,0,0,0-8.082,25.28c.114-.036.229-.069.343-.1,5.918-1.9,10.282-2.383,14.515-7.466" fill="#f7edff"/>
            <path id="Path_73" data-name="Path 73" d="M584.2,232.9c-2.254-3.867-7.552-8.912-12.5-7.5-4.57,1.306-5.947,6.72-5.011,10.743,1.547,6.655,7.17,12.6,13.988,13.051a5.193,5.193,0,0,0,2.354-.279,4.738,4.738,0,0,0,1.953-1.71c2.916-4.124,1.754-9.942-.789-14.306" fill="#8fc5de"/>
            <path id="Path_74" data-name="Path 74" d="M523.218,141.065a46.156,46.156,0,0,1,6.609,33.715c-1.883,9.662-6.893,18.806-6.675,28.647a25.878,25.878,0,0,0,9.906,19.879,22.749,22.749,0,0,0,21.756,3.119c3.988-1.609,7.381-4.4,11.208-6.357a29.953,29.953,0,0,1,19.483-2.664c1.747-4.622-1.373-9.865-5.545-12.512s-9.2-3.482-13.91-4.964a50.889,50.889,0,0,1-17.392-9.533,16.537,16.537,0,0,1-4.724-5.626c-1.235-2.746-1.146-5.877-1.081-8.888.144-6.72.038-13.548-1.867-19.995s-5.83-12.549-11.737-15.755" fill="#b948a5"/>
            <path id="Path_75" data-name="Path 75" d="M581.413,211.329a2.384,2.384,0,0,0-.249-.694,15.225,15.225,0,0,0-.971-1.879,21.375,21.375,0,0,0-5.277-5.7,33.315,33.315,0,0,0-10.292-5.173c-2.076-.659-4.287-1.164-6.528-1.809a25.317,25.317,0,0,1-6.574-2.721,14.088,14.088,0,0,1-2.75-2.263,15.948,15.948,0,0,1-2.019-2.819,23.2,23.2,0,0,1-2.227-6.235,112.572,112.572,0,0,1-1.484-11.308c-.341-3.243-.632-5.867-.853-7.678a17.9,17.9,0,0,0-.43-2.8,17.693,17.693,0,0,0,.094,2.835c.118,1.821.316,4.453.579,7.7a100,100,0,0,0,1.314,11.419,23.6,23.6,0,0,0,2.264,6.477,16.641,16.641,0,0,0,2.128,2.994,14.867,14.867,0,0,0,2.921,2.41,25.669,25.669,0,0,0,6.8,2.805c2.273.642,4.483,1.129,6.525,1.756a33.932,33.932,0,0,1,10.16,4.9,22.757,22.757,0,0,1,5.361,5.392c1.012,1.5,1.424,2.426,1.5,2.389" fill="#a53c99"/>
            <path id="Path_76" data-name="Path 76" d="M470.2,176.336a14.8,14.8,0,1,1,14.8-14.8,14.819,14.819,0,0,1-14.8,14.8m0-28.1a13.3,13.3,0,1,0,13.3,13.3,13.317,13.317,0,0,0-13.3-13.3" fill="#fff7ff"/>
            <path id="Path_77" data-name="Path 77" d="M505.443,168.985a14.8,14.8,0,1,1,14.8-14.8,14.819,14.819,0,0,1-14.8,14.8m0-28.1a13.3,13.3,0,1,0,13.3,13.3,13.316,13.316,0,0,0-13.3-13.3" fill="#fff7ff"/>
            <path id="Path_78" data-name="Path 78" d="M517.314,147.086a137.573,137.573,0,0,1,16.261-4.244c2.933-.577,5.9-1,8.87-1.318,5.152-.555,7.914,2,10.229,6.1a.7.7,0,0,0,1.209-.707c-3.168-5.611-6.655-7.307-13.111-6.611a117.677,117.677,0,0,0-23.83,5.432c-.854.28-.489,1.632.372,1.35" fill="#fff7ff"/>
            <path id="Path_79" data-name="Path 79" d="M484.531,157.624a3.479,3.479,0,0,1,6.3-1.406c.552.713,1.535-.285.99-.99a4.866,4.866,0,0,0-8.636,2.024c-.185.881,1.164,1.255,1.35.372" fill="#fff7ff"/>
            <path id="Path_80" data-name="Path 80" d="M135.275,98.39a23.617,23.617,0,0,1-10.159-31.4,29.839,29.839,0,0,1,10.971-11.614c12.675-8.024,32.852-6.8,40.617,7.555,3.781,6.99,5.365,14.664,2.36,22.312a24.2,24.2,0,0,1-11.11,12.422" fill="#292d75"/>
            <path id="Path_81" data-name="Path 81" d="M133.609,161.86c-4.552,2.423-10.771.185-13.272-4.324s-1.427-10.522,2.021-14.355c-2.573-2.609-3.619-6.424-3.6-10.088.049-9.97,4.32-23.9,10.082-31.987,5.347-7.51,15.334-12.562,23.955-9.3,3.235-2.6,7.469-3.668,11.613-3.871,7.794-.381,15.518,2.075,22.385,5.78,7.2,3.884,13.036,9.142,19.288,14.226,5.966,4.852,11.228,8.252,13.015,16.4a23.812,23.812,0,0,1-1.546,14.609c-1,2.266-2.695,4.052-3.779,6.222-1.052,2.1-1.672,4.531-2.774,6.678-1.776,3.463-4.462,7.1-8.342,7.417-2.186.178-4.813-.628-6.3.987" fill="#2f3281"/>
            <path id="Path_82" data-name="Path 82" d="M130.885,155.989l-14.3,32.32a35.711,35.711,0,0,0-3.919-.414,27.531,27.531,0,0,0,19.522,12.052A29.669,29.669,0,0,0,148.2,197.2l-5.3-.941,3.588-19.768Z" fill="#ea8193"/>
            <g id="Group_20" data-name="Group 20" opacity="0.18" style="mix-blend-mode: multiply;isolation: isolate">
              <g id="Group_19" data-name="Group 19">
                <g id="Group_18" data-name="Group 18" clip-path="url(#clip-path-8)">
                  <path id="Path_83" data-name="Path 83" d="M156.982,121.559c12.152,5.1,26.024,4.349,38.858,1.36,4.074-.949,8.273-2.121,12.378-1.312s8.032,4.38,7.588,8.54c-.279,2.62-2.14,4.748-3.4,7.065-3.008,5.549-2.871,12.907-7.56,17.133-4.616,4.159-11.705,3.333-17.824,2.252a8.265,8.265,0,0,1-3.976-1.446" fill="#2f3281"/>
                </g>
              </g>
            </g>
            <path id="Path_84" data-name="Path 84" d="M206.373,132.706a50.731,50.731,0,0,1-2.823,19.356c-1.686,5.077-3.861,10.5-7.042,14.831-3.428,4.67-5.906,9.964-10.319,13.95-6.346,5.733-15.8,9.909-24.354,8.9-9.288-1.1-18.865-4.85-25.35-11.786a27.08,27.08,0,0,1-6.525-24c-5.049.211-10.348-3.444-12.708-7.772-4.117-7.548-2.435-20.258,7.491-21.845a11.773,11.773,0,0,1,10.271,3.519c3.352-5.732,6.34-12.034,10.847-16.973,6.452-7.069,14.4-11.047,23.978-10.078,12.522,1.267,25.548,7.722,32.373,18.6a28.733,28.733,0,0,1,4.161,13.3" fill="#fa8f9c"/>
            <path id="Path_85" data-name="Path 85" d="M184.506,248.62c-4.96-36.768-21.592-47.646-35.109-51.207l-1.2-.213a29.679,29.679,0,0,1-16.013,2.747A27.536,27.536,0,0,1,112.662,187.9c-8.8-.52-30.418.534-43.949,21.083C51.4,235.272,40.189,264.54,46.7,293.459c0,0-9.668,22.06-7.245,33.06l116.963,5s6.332-27.61,6.23-51.305c0,0,8.678,27.553,31.954,39.262l18.953-12.906s-24.09-21.182-29.05-57.95" fill="#fff7ff"/>
            <path id="Path_86" data-name="Path 86" d="M109.615,187.986A60.625,60.625,0,0,0,98.949,231.3a9.9,9.9,0,0,0,1.648,4.828c2.244,2.863,6.543,2.72,10.158,2.31,2.692,13.045,12.213,25.8,26.414,26.756.684.046.839-15.683.885-17.339" fill="#e8e7ff"/>
            <path id="Path_87" data-name="Path 87" d="M187.3,301.79a48.743,48.743,0,0,1-5.324-10.672,62.342,62.342,0,0,1-2.754-12.549c-.552-4.391-.83-8.721-1.163-12.908s-.754-8.232-1.331-12.059a89.311,89.311,0,0,0-5.1-19.9,57.6,57.6,0,0,0-3.134-6.606,2.909,2.909,0,0,1-.733.019,60.731,60.731,0,0,1,3.106,6.883,92.471,92.471,0,0,1,4.808,19.762c.544,3.8.938,7.818,1.256,11.994s.587,8.525,1.145,12.965a62.351,62.351,0,0,0,2.831,12.775,49.092,49.092,0,0,0,5.506,10.89,72.92,72.92,0,0,0,12.673,14.044l.718-.489a74.88,74.88,0,0,1-12.5-14.144" fill="#e8e7ff"/>
            <path id="Path_88" data-name="Path 88" d="M153.575,199.522c5.075,9.681,8.336,20.738,6.653,31.538-.677,4.339-2.385,8.871-6.088,11.231a8.434,8.434,0,0,0-2.569,1.915c-.75,1.052-.728,2.443-.83,3.731-.669,8.481-7.106,15.777-15.166,18.12-1.359-16.137.039-32.28-.33-48.524" fill="#e8e7ff"/>
            <path id="Path_89" data-name="Path 89" d="M148.2,197.2a29.679,29.679,0,0,1-16.013,2.747A27.534,27.534,0,0,1,112.662,187.9c-.927-.055-2-.09-3.191-.089.027,12.964,1,25.966,4.349,38.47,3.829,14.314,10.945,28.026,21.958,37.938,8.261-11.561,13.275-25.242,15.72-39.238A144.038,144.038,0,0,0,153.48,198.7c-1.382-.512-2.748-.939-4.084-1.291Z" fill="#afd9f2"/>
            <path id="Path_90" data-name="Path 90" d="M166.251,150.27c-.966,2.094-2.51,3.441-3.448,3.008s-.916-2.482.051-4.576,2.51-3.44,3.448-3.007.915,2.481-.051,4.575" fill="#bc586a"/>
            <g id="Group_23" data-name="Group 23" opacity="0.1" style="mix-blend-mode: multiply;isolation: isolate">
              <g id="Group_22" data-name="Group 22">
                <g id="Group_21" data-name="Group 21" clip-path="url(#clip-path-9)">
                  <path id="Path_91" data-name="Path 91" d="M134.591,130.072c.061,7.12,8.506,5.076,12.532,3.249a24.668,24.668,0,0,0,6.831-4.6c1.075-1.026,4.972-4.709,4.705-6.352a9.247,9.247,0,0,0,3.968,5.889,17.686,17.686,0,0,0,6.748,2.628c11.837,2.357,24.158-1.89,36.094-.1-.41-3.838-3.592-6.805-6.954-8.7-8.826-4.971-19.915-5.055-28.3-10.742-3.779-2.564-7.107-6.294-11.627-6.951-3.854-.561-7.606,1.283-11.064,3.073" fill="#b751aa"/>
                </g>
              </g>
            </g>
            <path id="Path_92" data-name="Path 92" d="M189.106,158.817c-.666,2.208-2.007,3.756-3,3.458s-1.251-2.33-.585-4.538,2.007-3.756,3-3.458,1.252,2.33.586,4.538" fill="#bc586a"/>
            <path id="Path_93" data-name="Path 93" d="M173.749,134.97c-.052,1.519-2.189,2.679-4.772,2.59s-4.637-1.391-4.585-2.91,2.189-2.678,4.772-2.59,4.637,1.391,4.585,2.91" fill="#2f3281"/>
            <path id="Path_94" data-name="Path 94" d="M197.1,148.28c-.975,1.166-3.373.766-5.356-.893s-2.8-3.948-1.826-5.114,3.374-.766,5.357.893,2.8,3.948,1.825,5.114" fill="#2f3281"/>
            <g id="Group_26" data-name="Group 26" opacity="0.23" style="mix-blend-mode: multiply;isolation: isolate">
              <g id="Group_25" data-name="Group 25">
                <g id="Group_24" data-name="Group 24" clip-path="url(#clip-path-10)">
                  <path id="Path_95" data-name="Path 95" d="M157.28,159.245a10.327,10.327,0,1,1-10.328-10.328,10.328,10.328,0,0,1,10.328,10.328" fill="#b751aa"/>
                </g>
              </g>
            </g>
            <g id="Group_29" data-name="Group 29" opacity="0.23" style="mix-blend-mode: multiply;isolation: isolate">
              <g id="Group_28" data-name="Group 28">
                <g id="Group_27" data-name="Group 27" clip-path="url(#clip-path-11)">
                  <path id="Path_96" data-name="Path 96" d="M189.519,168.327a10.316,10.316,0,0,0-8.394,16.329,36.575,36.575,0,0,0,5.064-3.812c3.556-3.213,5.861-7.272,8.414-11.172a10.269,10.269,0,0,0-5.084-1.345" fill="#b751aa"/>
                </g>
              </g>
            </g>
            <path id="Path_97" data-name="Path 97" d="M134.894,125.35a12.977,12.977,0,0,0-.424,6.075c.5,1.988,2.312,3.807,4.35,3.584a6.161,6.161,0,0,0,2.749-1.275,59.2,59.2,0,0,0,16.482-17.488c1.228,6.094,7.085,10.343,13.126,11.81s12.36.757,18.57.477c8.135-.367,15.551,1.449,23.564,3.067a6.306,6.306,0,0,0,1.935.186,4.056,4.056,0,0,0,3.228-3.118,8.183,8.183,0,0,0-.441-4.683c-2.11-6.053-7.382-10.423-12.784-13.875a19.4,19.4,0,0,0-8.58-3.055c-3.184-.423-5.147-2.072-7.994-3.57a42.332,42.332,0,0,0-32.2-3.155c-10.546,3.38-19.551,11.638-23.256,22.075" fill="#2f3281"/>
            <path id="Path_98" data-name="Path 98" d="M161.281,279.895a13.513,13.513,0,0,0,1.7-2.27c1.026-1.5,2.518-3.676,4.192-6.487a48.54,48.54,0,0,0,2.478-4.761,28.761,28.761,0,0,0,1.969-5.876,25.521,25.521,0,0,0,.531-6.857,34.911,34.911,0,0,0-1.423-7.217c-1.447-4.8-3.27-9.169-4.627-13.224a43.9,43.9,0,0,1-2.426-11.006,27.2,27.2,0,0,1,.579-7.555,15.619,15.619,0,0,0,.661-2.742,11.589,11.589,0,0,0-1.1,2.626,24.39,24.39,0,0,0-.961,7.711,41.921,41.921,0,0,0,2.23,11.3c1.319,4.121,3.111,8.509,4.531,13.221a34.782,34.782,0,0,1,1.4,6.966,25.053,25.053,0,0,1-.443,6.561,37.892,37.892,0,0,1-4.116,10.452c-1.566,2.833-2.952,5.073-3.862,6.65a13.2,13.2,0,0,0-1.316,2.511" fill="#e8e7ff"/>
            <path id="Path_99" data-name="Path 99" d="M169.237,223.866c-.255-.162-1.984,2.29-2.933,5.818-.969,3.523-.721,6.513-.42,6.5.337.009.607-2.84,1.535-6.2.9-3.366,2.112-5.959,1.818-6.122" fill="#e8e7ff"/>
            <path id="Path_100" data-name="Path 100" d="M149.4,197.413l-1.2-.213a29.679,29.679,0,0,1-16.013,2.747A27.534,27.534,0,0,1,112.663,187.9c-1.266-.075-2.8-.114-4.536-.071,1.931,7.876,9.108,14.353,17.028,17.048,8.3,2.824,17.848,2.36,25.433-2.042a32.015,32.015,0,0,0,4.72-3.4,42.969,42.969,0,0,0-5.911-2.022" fill="#9dc9e1"/>
            <path id="Path_101" data-name="Path 101" d="M134.7,264.7c-.028.582-.056,1.16-.084,1.762-.379,8.194-1.031,19.5-2.182,31.96s-2.6,23.692-3.736,31.816c-.492,3.538-.935,6.724-1.339,9.627a14.254,14.254,0,0,0-.3,3.569,14.365,14.365,0,0,0,.961-3.451c.515-2.242,1.164-5.506,1.886-9.554,1.446-8.094,3.086-19.347,4.25-31.847s1.615-23.863,1.682-32.085q.006-.74.009-1.442a2.983,2.983,0,0,1-1.15-.355" fill="#e8e7ff"/>
            <path id="Path_102" data-name="Path 102" d="M110.3,319.327a54.232,54.232,0,0,0,3.725-10.5c1.3-5.622.888-11.2.521-16.8-5.061-1.116-12.3-2.885-13.468-3.138-5.27-1.139-11.882-4.531-14.744-9.338a14.511,14.511,0,0,1-1.711-7.429c-.031-23.459,29.956-42.953,14.113-67.107-2.262-3.45-5.327-6.636-9.3-7.763-10.4-2.952-20.012,7.228-25.73,14.488-6.841,8.684-11.588,18.805-16.039,28.925-4.9,11.143-8.44,22.436-8.627,34.735-.214,14.1,8.7,25.671,20.384,32.945,8.315,5.176,17.223,7.124,26.649,9.115,7.118,1.5,16.45,3.055,24.223,1.868" fill="#fff7ff"/>
            <g id="Group_32" data-name="Group 32" opacity="0.1" style="mix-blend-mode: multiply;isolation: isolate">
              <g id="Group_31" data-name="Group 31">
                <g id="Group_30" data-name="Group 30" clip-path="url(#clip-path-12)">
                  <path id="Path_103" data-name="Path 103" d="M132.042,140.264a14.13,14.13,0,0,0-5.608-9.242,4.319,4.319,0,0,0-2.067-.929,4.615,4.615,0,0,0-3.2,1.382,9.84,9.84,0,0,0-2.465,2.816c-1.686,3.151-1.129,7.25.566,10.277,1.57,2.8,6.043,6.347,9.483,5.7s3.677-7.413,3.292-10" fill="#b751aa"/>
                </g>
              </g>
            </g>
            <path id="Path_104" data-name="Path 104" d="M170.681,164.144c-.029.047.275.338.907.777a6.1,6.1,0,0,0,1.257.669,3.766,3.766,0,0,0,1.936.221,2.7,2.7,0,0,0,1.976-1.406,6.286,6.286,0,0,0,.59-2.619,30.839,30.839,0,0,1,4.726-15.3c1.411-2.285,2.546-3.528,2.433-3.628-.044-.04-.362.237-.9.778a21.649,21.649,0,0,0-2.04,2.512,27.75,27.75,0,0,0-4.315,9.749,28.573,28.573,0,0,0-.7,5.85,5.811,5.811,0,0,1-.429,2.324,2.066,2.066,0,0,1-1.456,1.138,4.461,4.461,0,0,1-2.906-.579c-.668-.339-1.044-.54-1.078-.486" fill="#bc586a"/>
            <path id="Path_105" data-name="Path 105" d="M169.07,169.211c0-.131-.547-.205-1.331-.52a5.613,5.613,0,0,1-3.644-4.916c-.073-.843.017-1.39-.11-1.426-.1-.034-.415.476-.5,1.424a5.216,5.216,0,0,0,4.079,5.5c.932.192,1.513.039,1.508-.066" fill="#bc586a"/>
            <path id="Path_106" data-name="Path 106" d="M130.516,149.837a10.721,10.721,0,0,0,1.225-3.294,19.162,19.162,0,0,0,.48-8.5,11.67,11.67,0,0,0-4.491-7.221,5.5,5.5,0,0,0-3.3-1.26,21.647,21.647,0,0,1,2.934,1.749,12.014,12.014,0,0,1,4.011,6.9,21.789,21.789,0,0,1-.228,8.2,20.738,20.738,0,0,0-.627,3.43" fill="#bc586a"/>
            <path id="Path_107" data-name="Path 107" d="M129.363,146.513c.065-.128-.781-.51-1.649-1.607a6.868,6.868,0,0,1-1.388-5.061,10.219,10.219,0,0,1,2.047-5c.868-1.108,1.7-1.5,1.637-1.624-.022-.1-1.013.111-2.1,1.218a9.325,9.325,0,0,0-2.449,5.312,7.289,7.289,0,0,0,.37,3.275,6.452,6.452,0,0,0,1.42,2.282c1.1,1.107,2.09,1.293,2.109,1.2" fill="#bc586a"/>
            <path id="Path_108" data-name="Path 108" d="M114.175,308.067a44.61,44.61,0,0,0-7.231-1.838,80.928,80.928,0,0,0,1.329-9.374c.095-1.642.2-3.2.19-4.665.013-.539.005-1.048,0-1.559l-.9-.212c-.009.568-.021,1.144-.054,1.748-.025,1.444-.171,2.981-.292,4.6a92.579,92.579,0,0,1-1.4,9.266c-.44-.076-.867-.155-1.317-.229a76.671,76.671,0,0,1-11.889-2.68A52.751,52.751,0,0,1,80.026,297.2a39.859,39.859,0,0,1-11.018-10.544,34.075,34.075,0,0,1-5.976-15.131,28.949,28.949,0,0,1,.127-8.278,39.188,39.188,0,0,1,2.188-7.8,74.387,74.387,0,0,1,3.262-7.179c.576-1.156,1.161-2.293,1.773-3.4.595-1.117,1.2-2.213,1.815-3.285,4.9-8.594,9.792-16.086,13.411-22.678a104.162,104.162,0,0,0,7.519-16.127q.477-1.41.894-2.648l.1-.358c-.09-.073-.178-.147-.269-.217-.052.156-.1.306-.155.467-.31.812-.639,1.676-.99,2.6A115.524,115.524,0,0,1,84.9,218.5c-3.693,6.512-8.649,13.943-13.624,22.553-.628,1.073-1.24,2.173-1.845,3.295-.622,1.112-1.217,2.256-1.8,3.42a74.229,74.229,0,0,0-3.332,7.268,40.116,40.116,0,0,0-2.267,8.02,29.909,29.909,0,0,0-.138,8.608A35.014,35.014,0,0,0,68.08,287.3a40.658,40.658,0,0,0,11.366,10.788,53.032,53.032,0,0,0,12.866,5.948,75.414,75.414,0,0,0,12.05,2.573c.441.066.858.137,1.288.2-.027.125-.048.247-.075.372a90.808,90.808,0,0,1-2.957,10.124c-.312.815-.608,1.605-.907,2.372.361.017.721.034,1.079.044.273-.664.544-1.345.825-2.045a79.779,79.779,0,0,0,3.087-10.243c.033-.149.057-.294.088-.442a45.029,45.029,0,0,1,7.26,1.714c.049-.214.081-.428.125-.642" fill="#e8e7ff"/>
            <path id="Path_109" data-name="Path 109" d="M115.175,317.005c.541.146,1.087.284,1.635.407L112.26,316c-.014.038-.026.078-.04.116.978.319,1.961.622,2.955.891" fill="#fa8f9c"/>
            <path id="Path_110" data-name="Path 110" d="M149.835,304.768c-2.752-3.02-7.009-4.326-10.916-4.934a28.444,28.444,0,0,0-9.036.075c4.018-1.609,7.971-1.061,12.17-1.3a6.8,6.8,0,0,0,3.784-1.075.9.9,0,0,0,.315-.361c.183-.463-.354-.878-.82-1.057-2.687-1.033-5.62-.647-8.422-.738a34.857,34.857,0,0,0-9.277.952,12.562,12.562,0,0,0,4.637-7.484,2.8,2.8,0,0,0-.008-1.484,1.134,1.134,0,0,0-1.134-.8,1.718,1.718,0,0,0-.912.6c-3.15,3.28-6.775,6.862-11.365,7.907a13.905,13.905,0,0,1-4.674.132,27.653,27.653,0,0,1,.548,11.389c-.008.054-.01.106-.016.16a30,30,0,0,1-.845,4.115c-.435,1.7-.97,3.382-1.57,5.028,3.713,1.019,7.522.3,11.282-.32a34.953,34.953,0,0,1,12.6-.128,19.736,19.736,0,0,0,2.959.535,1.783,1.783,0,0,0,.871-.115.737.737,0,0,0,.453-.7,1.033,1.033,0,0,0-.371-.6c-1.14-1.089-2.471-1.269-3.941-1.679a20.252,20.252,0,0,0-5.861-1.563,34.63,34.63,0,0,1-5.374-1.192,8.742,8.742,0,0,0,2.4-.406c.853-.115,1.711-.2,2.571-.253a32.073,32.073,0,0,1,5.064.093c3.347.33,6.507,1.43,9.8,1.991.661.113,2.025.672,2.221-.249.19-.889-1.343-2.117-1.943-2.531-1.928-1.332-4.335-1.73-6.539-2.388a75.663,75.663,0,0,0-10.241-2.3,32.832,32.832,0,0,1,11.3.1c3,.488,5.83,1.551,8.813,2.085a3.058,3.058,0,0,0,2-.119,1.511,1.511,0,0,0-.519-1.394" fill="#fa8f9c"/>
            <path id="Path_111" data-name="Path 111" d="M88.111,221.01c-2.535-5.325-8.1-4.621-12.069-1.508a16.57,16.57,0,0,0-6.365,12.44c-.011,3.225,1.745,6.623,4.78,7.715a7.59,7.59,0,0,0,5.785-.463,12.913,12.913,0,0,0,4.482-3.846,20.043,20.043,0,0,0,3.824-8.576,9.466,9.466,0,0,0-.437-5.762" fill="#afd9f2"/>
            <path id="Path_112" data-name="Path 112" d="M110.931,318.908c-.032-.28-4.319.255-11.232.227a77.838,77.838,0,0,1-26.353-4.655,62.339,62.339,0,0,1-22.569-14.134c-4.9-4.852-7.03-8.656-7.318-8.463a10.248,10.248,0,0,0,1.376,2.72c.5.847,1.22,1.806,2.015,2.955.4.57.9,1.126,1.4,1.744s1.024,1.271,1.647,1.893a58.255,58.255,0,0,0,22.85,14.91,71.785,71.785,0,0,0,35.219,3.489,9.569,9.569,0,0,0,2.967-.686" fill="#e8e7ff"/>
            <path id="Path_113" data-name="Path 113" d="M113.86,291.8a12.619,12.619,0,0,0-3.028-.55,59.238,59.238,0,0,1-8.108-1.7,41.168,41.168,0,0,1-5.326-1.955,25.437,25.437,0,0,1-5.521-3.281c-.425-.366-.9-.689-1.3-1.1l-1.213-1.238c-.367-.449-.708-.927-1.071-1.395a11.751,11.751,0,0,1-.919-1.527,16.268,16.268,0,0,1-1.775-7.177c-.1-5.212,1.6-10.085,3.371-14.327,1.858-4.25,3.687-8.06,5.109-11.285,2.894-6.443,4.577-10.481,4.361-10.584s-2.29,3.75-5.471,10.066c-1.572,3.175-3.5,6.9-5.465,11.171-1.876,4.286-3.743,9.355-3.637,15a17.689,17.689,0,0,0,2.011,7.936,13.145,13.145,0,0,0,1.044,1.692c.405.515.792,1.039,1.206,1.527l1.346,1.335c.445.438.958.779,1.426,1.165a25.865,25.865,0,0,0,5.926,3.336,38.514,38.514,0,0,0,5.584,1.821,43.136,43.136,0,0,0,8.358,1.186,9.272,9.272,0,0,0,3.092-.121" fill="#e8e7ff"/>
            <path id="Path_114" data-name="Path 114" d="M110.262,319.572c.178.116,1.29-1.138,2.541-3.526a27.544,27.544,0,0,0,1.8-4.374,30.474,30.474,0,0,0,1.322-11.479,27.635,27.635,0,0,0-.76-4.669c-.675-2.61-1.474-4.083-1.673-4.011-.251.085.125,1.676.471,4.244a39.82,39.82,0,0,1-2.279,19.789c-.92,2.422-1.648,3.887-1.422,4.026" fill="#e8e7ff"/>
            <path id="Path_115" data-name="Path 115" d="M273.047,284.056H235.325v-3.669a7.477,7.477,0,0,1,7.476-7.477H265.57a7.477,7.477,0,0,1,7.477,7.477Z" fill="#8fc5de"/>
            <rect id="Rectangle_12" data-name="Rectangle 12" width="8.541" height="27.387" transform="translate(213.556 282.184)" fill="#2c1e66"/>
            <path id="Path_116" data-name="Path 116" d="M278.284,286.953H223.638v-4.76h54.646a2.38,2.38,0,1,1,0,4.76" fill="#2c1e66"/>
            <path id="Path_117" data-name="Path 117" d="M211.867,208.716c-15.387,6.825-23.077,24.66-22.594,40.748.5,16.614,11.071,31.357,24.988,39.7,4.019,2.408,7.66-3.859,3.657-6.258-12.043-7.218-20.422-19.258-21.4-33.44-.94-13.666,6.159-28.793,19-34.491,4.264-1.891.574-8.134-3.658-6.257" fill="#2c1e66"/>
            <path id="Path_118" data-name="Path 118" d="M227.727,284.424a9.9,9.9,0,1,0-9.9,9.9,9.9,9.9,0,0,0,9.9-9.9" fill="#8fc5de"/>
            <path id="Path_119" data-name="Path 119" d="M222.087,284.424a4.261,4.261,0,1,0-4.261,4.261,4.261,4.261,0,0,0,4.261-4.261" fill="#536bbe"/>
            <path id="Path_120" data-name="Path 120" d="M285.4,322.623v-6.888A11.632,11.632,0,0,0,273.768,304.1h-72.63a11.632,11.632,0,0,0-11.632,11.632v6.888Z" fill="#cadbff"/>
            <path id="Path_121" data-name="Path 121" d="M189.53,315.268h95.847a11.59,11.59,0,0,0-.556-3.145H190.085a11.627,11.627,0,0,0-.555,3.145" fill="#fff7ff"/>
            <path id="Path_122" data-name="Path 122" d="M257.647,241.229a17.314,17.314,0,1,1-17.314-17.314,17.314,17.314,0,0,1,17.314,17.314" fill="#fff7ff"/>
            <rect id="Rectangle_13" data-name="Rectangle 13" width="10.198" height="19.01" transform="matrix(0.907, -0.42, 0.42, 0.907, 197.329, 167.327)" fill="#2c1e66"/>
            <path id="Path_123" data-name="Path 123" d="M208.779,164.538l-11.73,5.432a2.775,2.775,0,0,1-2.332-5.036l11.73-5.432a2.775,2.775,0,0,1,2.332,5.036" fill="#8fc5de"/>
            <path id="Path_124" data-name="Path 124" d="M261.73,241.476,216.322,168.9l-19.679,9.683,30.9,80.66c11.283-6.132,22.762-11.9,34.187-17.769" fill="#536bbe"/>
            <path id="Path_125" data-name="Path 125" d="M202.41,193.64q11.259-5.514,22.611-10.835l-2.655-4.243q-10.914,5.117-21.745,10.408Z" fill="#2c1e66"/>
            <path id="Path_126" data-name="Path 126" d="M207.575,207.123q12.521-6.115,25.15-12l-2.658-4.249q-12.2,5.675-24.281,11.584Z" fill="#2c1e66"/>
            <path id="Path_127" data-name="Path 127" d="M212.74,220.607q13.786-6.714,27.709-13.142l-2.657-4.246q-13.484,6.224-26.84,12.72Z" fill="#2c1e66"/>
            <path id="Path_128" data-name="Path 128" d="M220.875,212.586a9.9,9.9,0,1,0-9.9,9.9,9.9,9.9,0,0,0,9.9-9.9" fill="#8fc5de"/>
            <path id="Path_129" data-name="Path 129" d="M215.235,212.586a4.261,4.261,0,1,0-4.261,4.261,4.261,4.261,0,0,0,4.261-4.261" fill="#536bbe"/>
            <g id="Group_35" data-name="Group 35" opacity="0.71">
              <g id="Group_34" data-name="Group 34">
                <g id="Group_33" data-name="Group 33" clip-path="url(#clip-path-13)">
                  <path id="Path_130" data-name="Path 130" d="M335.049,248.008H313.922a3.737,3.737,0,0,1,0-7.475h21.127a3.737,3.737,0,0,1,0,7.475" fill="#fff7ff"/>
                </g>
              </g>
            </g>
            <g id="Group_38" data-name="Group 38" opacity="0.42">
              <g id="Group_37" data-name="Group 37">
                <g id="Group_36" data-name="Group 36" clip-path="url(#clip-path-14)">
                  <path id="Path_131" data-name="Path 131" d="M333.348,271.737V244.088H315.625v27.649c-12.011,3.448-20.726,13.72-20.726,25.856,0,9.792,5.674,18.37,14.176,23.129H339.9c8.5-4.759,14.175-13.337,14.175-23.129,0-12.137-8.715-22.408-20.726-25.856" fill="#fff7ff"/>
                </g>
              </g>
            </g>
            <path id="Path_132" data-name="Path 132" d="M342.367,292.836q1.405-2.277,2.81-4.554c.225-.363.418-.908.069-1.153a.853.853,0,0,0-.324-.114,29.717,29.717,0,0,0-14.447.529c-4.371,1.392-8.233,3.978-12.15,6.295-2.341,1.385-5.1,1.731-7.752,2.2a24.836,24.836,0,0,1-5.319.414c-.254-.009-4.265-.249-4.263-.242.471,1.547,2.279,3.013,3.52,4.028a8.21,8.21,0,0,0,4.686,1.525" fill="#a33b98"/>
            <path id="Path_133" data-name="Path 133" d="M325.443,295.487c-8.623,4.465-17.011,5.093-24.455,1.359-.011.277-.045.549-.045.829,0,11.9,10.541,21.554,23.543,21.554s23.544-9.65,23.544-21.554a20.021,20.021,0,0,0-2.787-10.17c-6.881,1.421-13.733,4.841-19.8,7.982" fill="#b948a5"/>
            <g id="Group_41" data-name="Group 41" opacity="0.42">
              <g id="Group_40" data-name="Group 40">
                <g id="Group_39" data-name="Group 39" clip-path="url(#clip-path-15)">
                  <path id="Path_134" data-name="Path 134" d="M340.753,322.945H308.22a2.072,2.072,0,0,1,0-4.143h32.533a2.072,2.072,0,1,1,0,4.143" fill="#fff7ff"/>
                </g>
              </g>
            </g>
            <path id="Path_135" data-name="Path 135" d="M310.539,304.138A1.637,1.637,0,1,1,308.9,302.5a1.637,1.637,0,0,1,1.637,1.637" fill="#a33b98"/>
            <path id="Path_136" data-name="Path 136" d="M330.986,311.375a1.2,1.2,0,1,1-1.2-1.2,1.2,1.2,0,0,1,1.2,1.2" fill="#a33b98"/>
            <path id="Path_137" data-name="Path 137" d="M323.261,304.138a1.783,1.783,0,1,1-1.784-1.784,1.784,1.784,0,0,1,1.784,1.784" fill="#a33b98"/>
            <path id="Path_138" data-name="Path 138" d="M340.143,304.138a1.784,1.784,0,1,1-1.784-1.784,1.784,1.784,0,0,1,1.784,1.784" fill="#a33b98"/>
            <path id="Path_139" data-name="Path 139" d="M319.613,313.7a.605.605,0,1,1-.605-.605.605.605,0,0,1,.605.605" fill="#a33b98"/>
            <path id="Path_140" data-name="Path 140" d="M339.392,297.082a.6.6,0,1,1-.605-.605.605.605,0,0,1,.605.605" fill="#a33b98"/>
            <path id="Path_141" data-name="Path 141" d="M331.092,297.082a.855.855,0,1,1-.855-.855.855.855,0,0,1,.855.855" fill="#a33b98"/>
            <path id="Path_142" data-name="Path 142" d="M479.63,201.767a4.135,4.135,0,0,0-4.135-4.135H334.927c-7.869,0-6.946,8.138-6.946,8.138l2.81,1.084v90.77a4.136,4.136,0,0,0,4.136,4.136H467.946l3.23,4.669s8.454,1.055,8.454-7.678c0-.276-.011-.549-.031-.819.008-.1.031-.2.031-.308Z" fill="#bed1ff"/>
            <path id="Path_143" data-name="Path 143" d="M470.526,306.486h-138.5a4.106,4.106,0,0,1-4.106-4.106V206.464a4.106,4.106,0,0,1,4.106-4.106h138.5a4.106,4.106,0,0,1,4.106,4.106V302.38a4.106,4.106,0,0,1-4.106,4.106" fill="#cadbff"/>
            <path id="Path_144" data-name="Path 144" d="M430.906,322.751v-4.026a3.471,3.471,0,0,0-3.471-3.471H382.61a3.471,3.471,0,0,0-3.471,3.471v4.026Z" fill="#cadbff"/>
            <path id="Path_145" data-name="Path 145" d="M410.845,245.512a9.569,9.569,0,1,1-9.569-9.568,9.569,9.569,0,0,1,9.569,9.568" fill="#fff7ff"/>
            <path id="Path_146" data-name="Path 146" d="M410.307,322.969a3.824,3.824,0,0,0,.07-.7V268.113a3.823,3.823,0,0,0-3.822-3.823h-13.3a3.823,3.823,0,0,0-3.823,3.823v54.158a3.824,3.824,0,0,0,.071.7Z" fill="#2c1e66"/>
            <path id="Path_147" data-name="Path 147" d="M646.466,340.669H13.961a9.6,9.6,0,1,1,0-19.209H646.466a9.6,9.6,0,0,1,0,19.209" fill="#295fc3"/>
            <g id="Group_44" data-name="Group 44" opacity="0.11" style="mix-blend-mode: multiply;isolation: isolate">
              <g id="Group_43" data-name="Group 43">
                <g id="Group_42" data-name="Group 42" clip-path="url(#clip-path-16)">
                  <path id="Path_148" data-name="Path 148" d="M254.186,40.929c5.8,0,5.8-9,0-9s-5.8,9,0,9" fill="#68b0ff"/>
                  <path id="Path_149" data-name="Path 149" d="M334.638,143.479c5.8,0,5.8-9,0-9s-5.8,9,0,9" fill="#68b0ff"/>
                  <path id="Path_150" data-name="Path 150" d="M440.213,78.813c5.8,0,5.8-9,0-9s-5.8,9,0,9" fill="#68b0ff"/>
                  <path id="Path_151" data-name="Path 151" d="M462.213,11.479c5.8,0,5.8-9,0-9s-5.8,9,0,9" fill="#68b0ff"/>
                  <path id="Path_152" data-name="Path 152" d="M515.546,60.146c5.8,0,5.8-9,0-9s-5.8,9,0,9" fill="#68b0ff"/>
                  <path id="Path_153" data-name="Path 153" d="M604.2,15.979c5.8,0,5.8-9,0-9s-5.8,9,0,9" fill="#68b0ff"/>
                  <path id="Path_154" data-name="Path 154" d="M606.213,143.479c5.8,0,5.8-9,0-9s-5.8,9,0,9" fill="#68b0ff"/>
                  <path id="Path_155" data-name="Path 155" d="M652.88,172.813c5.8,0,5.8-9,0-9s-5.8,9,0,9" fill="#68b0ff"/>
                  <path id="Path_156" data-name="Path 156" d="M92.5,89.668c5.8,0,5.8-9,0-9s-5.8,9,0,9" fill="#68b0ff"/>
                  <path id="Path_157" data-name="Path 157" d="M9.063,153.312c5.786-.458,5.076-9.43-.71-8.972s-5.076,9.43.71,8.972" fill="#68b0ff"/>
                  <path id="Path_158" data-name="Path 158" d="M50.794,205.479c5.8,0,5.8-9,0-9s-5.8,9,0,9" fill="#68b0ff"/>
                  <path id="Path_159" data-name="Path 159" d="M204.453,66.668c5.8,0,5.8-9,0-9s-5.8,9,0,9" fill="#68b0ff"/>
                  <path id="Path_160" data-name="Path 160" d="M396.456,166.034c5.8,0,5.8-9,0-9s-5.8,9,0,9" fill="#68b0ff"/>
                  <path id="Path_161" data-name="Path 161" d="M261.73,117.541c5.8,0,5.8-9,0-9s-5.8,9,0,9" fill="#68b0ff"/>
                  <path id="Path_162" data-name="Path 162" d="M4.353,229.659c5.8,0,5.8-9,0-9s-5.8,9,0,9" fill="#68b0ff"/>
                  <path id="Path_163" data-name="Path 163" d="M98.861,24.084c5.8,0,5.8-9,0-9s-5.8,9,0,9" fill="#68b0ff"/>
                  <path id="Path_164" data-name="Path 164" d="M614.88,187.479c5.8,0,5.8-9,0-9s-5.8,9,0,9" fill="#68b0ff"/>
                  <path id="Path_165" data-name="Path 165" d="M285.377,198.14c5.8,0,5.8-9,0-9s-5.8,9,0,9" fill="#68b0ff"/>
                </g>
              </g>
            </g>
          </g>
        </g>
      </g>
    </g>
  </g>
</svg>
