<svg xmlns="http://www.w3.org/2000/svg" width="144.93" height="143.792" viewBox="0 0 144.93 143.792">
  <g id="LOGO" transform="translate(-1383.535 -124.266)">
    <g id="science-svgrepo-com" transform="translate(1431.241 86.271) rotate(47)">
      <g id="Group_2" data-name="Group 2" transform="translate(51.952)">
        <g id="Group_1" data-name="Group 1">
          <path id="Path_1" data-name="Path 1" d="M139.852,94.825,112.206,61.883V16.333A8.168,8.168,0,0,0,111.947,0H82.564a8.168,8.168,0,0,0-.26,16.332v45.55L54.659,94.824a11.475,11.475,0,0,0,8.79,18.851h67.614A11.475,11.475,0,0,0,139.852,94.825ZM79.987,8.169a2.58,2.58,0,0,1,2.577-2.577h29.382a2.577,2.577,0,0,1,0,5.154H82.565A2.58,2.58,0,0,1,79.987,8.169ZM87.243,64.7a2.8,2.8,0,0,0,.654-1.8V55.488h6.452a2.8,2.8,0,1,0,0-5.592H87.9V45.4h6.452a2.8,2.8,0,1,0,0-5.592H87.9V35.317h6.452a2.8,2.8,0,1,0,0-5.592H87.9V16.339h18.716V62.9a2.8,2.8,0,0,0,.654,1.8l9.793,11.669H77.451Zm43.82,43.385H63.449a5.876,5.876,0,0,1-4.506-9.663l13.814-16.46h49l13.814,16.46A5.875,5.875,0,0,1,131.063,108.083Z" transform="translate(-51.952)" fill="#fff"/>
          <path id="Path_2" data-name="Path 2" d="M287.656,389.978a8.437,8.437,0,1,0,8.437,8.437A8.447,8.447,0,0,0,287.656,389.978Zm0,11.282a2.845,2.845,0,1,1,2.845-2.845A2.848,2.848,0,0,1,287.656,401.26Z" transform="translate(-228.76 -303.394)" fill="#fff"/>
        </g>
      </g>
    </g>
    <rect id="Rectangle_1" data-name="Rectangle 1" width="92" height="4" transform="translate(1505.697 266) rotate(-90)" fill="#fff"/>
  </g>
</svg>
